<mxfile host="app.diagrams.net" modified="2023-03-28T19:33:46.010Z" agent="Mozilla/5.0 (Windows NT 10.0; Win64; x64) AppleWebKit/537.36 (KHTML, like Gecko) Chrome/111.0.0.0 Safari/537.36 Edg/111.0.1661.54" etag="H-aiALNv6SgG7UUrUoy7" version="21.1.1" type="github">
  <diagram name="PÃ¡gina-1" id="rkHG6nmuOjkpt8-TUzvK">
    <mxGraphModel dx="794" dy="477" grid="1" gridSize="10" guides="1" tooltips="1" connect="1" arrows="1" fold="1" page="1" pageScale="1" pageWidth="827" pageHeight="1169" math="0" shadow="0">
      <root>
        <mxCell id="0" />
        <mxCell id="1" parent="0" />
        <mxCell id="XnEvQe8ai3ZGjiJY6H-x-5" value="Cadastrar Proponente" style="shape=rect;html=1;verticalAlign=top;fontStyle=1;whiteSpace=wrap;align=center;" parent="1" vertex="1">
          <mxGeometry x="163" y="25" width="430" height="450" as="geometry" />
        </mxCell>
        <mxCell id="XnEvQe8ai3ZGjiJY6H-x-2" value="Incluir Proponente" style="ellipse;whiteSpace=wrap;html=1;" parent="1" vertex="1">
          <mxGeometry x="220" y="40" width="90" height="70" as="geometry" />
        </mxCell>
        <mxCell id="XnEvQe8ai3ZGjiJY6H-x-3" value="Adm Site" style="shape=umlActor;html=1;verticalLabelPosition=bottom;verticalAlign=top;align=center;" parent="1" vertex="1">
          <mxGeometry x="20" y="230" width="30" height="60" as="geometry" />
        </mxCell>
        <mxCell id="XnEvQe8ai3ZGjiJY6H-x-4" value="" style="edgeStyle=none;html=1;endArrow=block;endFill=0;endSize=12;verticalAlign=bottom;rounded=0;entryX=0;entryY=0.5;entryDx=0;entryDy=0;exitX=0.744;exitY=0.472;exitDx=0;exitDy=0;exitPerimeter=0;" parent="1" source="XnEvQe8ai3ZGjiJY6H-x-3" target="XnEvQe8ai3ZGjiJY6H-x-2" edge="1">
          <mxGeometry width="160" relative="1" as="geometry">
            <mxPoint x="90" y="160" as="sourcePoint" />
            <mxPoint x="250" y="160" as="targetPoint" />
          </mxGeometry>
        </mxCell>
        <mxCell id="XnEvQe8ai3ZGjiJY6H-x-7" value="Alterar Proponente" style="ellipse;whiteSpace=wrap;html=1;" parent="1" vertex="1">
          <mxGeometry x="264" y="130" width="96" height="70" as="geometry" />
        </mxCell>
        <mxCell id="XnEvQe8ai3ZGjiJY6H-x-8" value="Excluir Proponente" style="ellipse;whiteSpace=wrap;html=1;" parent="1" vertex="1">
          <mxGeometry x="360" y="220" width="96" height="70" as="geometry" />
        </mxCell>
        <mxCell id="XnEvQe8ai3ZGjiJY6H-x-13" value="" style="edgeStyle=none;html=1;endArrow=block;endFill=0;endSize=12;verticalAlign=bottom;rounded=0;entryX=0;entryY=0.714;entryDx=0;entryDy=0;entryPerimeter=0;exitX=0.5;exitY=0.5;exitDx=0;exitDy=0;exitPerimeter=0;" parent="1" source="XnEvQe8ai3ZGjiJY6H-x-3" target="XnEvQe8ai3ZGjiJY6H-x-7" edge="1">
          <mxGeometry width="160" relative="1" as="geometry">
            <mxPoint x="100" y="239.5" as="sourcePoint" />
            <mxPoint x="260" y="239.5" as="targetPoint" />
          </mxGeometry>
        </mxCell>
        <mxCell id="XnEvQe8ai3ZGjiJY6H-x-14" value="" style="edgeStyle=none;html=1;endArrow=block;endFill=0;endSize=12;verticalAlign=bottom;rounded=0;exitX=0.744;exitY=0.55;exitDx=0;exitDy=0;exitPerimeter=0;" parent="1" source="XnEvQe8ai3ZGjiJY6H-x-3" target="XnEvQe8ai3ZGjiJY6H-x-8" edge="1">
          <mxGeometry width="160" relative="1" as="geometry">
            <mxPoint x="110" y="309.5" as="sourcePoint" />
            <mxPoint x="330" y="270" as="targetPoint" />
          </mxGeometry>
        </mxCell>
        <mxCell id="XnEvQe8ai3ZGjiJY6H-x-15" value="Proponente" style="shape=umlActor;html=1;verticalLabelPosition=bottom;verticalAlign=top;align=center;" parent="1" vertex="1">
          <mxGeometry x="680" y="200" width="30" height="60" as="geometry" />
        </mxCell>
        <mxCell id="XnEvQe8ai3ZGjiJY6H-x-16" value="" style="edgeStyle=none;html=1;endArrow=block;endFill=0;endSize=12;verticalAlign=bottom;rounded=0;" parent="1" target="XnEvQe8ai3ZGjiJY6H-x-7" edge="1">
          <mxGeometry width="160" relative="1" as="geometry">
            <mxPoint x="690" y="230" as="sourcePoint" />
            <mxPoint x="620" y="350" as="targetPoint" />
          </mxGeometry>
        </mxCell>
        <mxCell id="XnEvQe8ai3ZGjiJY6H-x-17" value="" style="edgeStyle=none;html=1;endArrow=block;endFill=0;endSize=12;verticalAlign=bottom;rounded=0;exitX=0.5;exitY=0.5;exitDx=0;exitDy=0;exitPerimeter=0;entryX=1.026;entryY=0.69;entryDx=0;entryDy=0;entryPerimeter=0;" parent="1" source="XnEvQe8ai3ZGjiJY6H-x-15" target="XnEvQe8ai3ZGjiJY6H-x-2" edge="1">
          <mxGeometry width="160" relative="1" as="geometry">
            <mxPoint x="490" y="170" as="sourcePoint" />
            <mxPoint x="650" y="170" as="targetPoint" />
          </mxGeometry>
        </mxCell>
        <mxCell id="XnEvQe8ai3ZGjiJY6H-x-18" value="" style="edgeStyle=none;html=1;endArrow=block;endFill=0;endSize=12;verticalAlign=bottom;rounded=0;exitX=0.5;exitY=0.5;exitDx=0;exitDy=0;exitPerimeter=0;" parent="1" source="XnEvQe8ai3ZGjiJY6H-x-15" target="XnEvQe8ai3ZGjiJY6H-x-8" edge="1">
          <mxGeometry width="160" relative="1" as="geometry">
            <mxPoint x="680" y="240" as="sourcePoint" />
            <mxPoint x="406" y="320" as="targetPoint" />
          </mxGeometry>
        </mxCell>
        <mxCell id="XnEvQe8ai3ZGjiJY6H-x-19" value="Consultar Proponente" style="ellipse;whiteSpace=wrap;html=1;" parent="1" vertex="1">
          <mxGeometry x="270" y="290" width="96" height="70" as="geometry" />
        </mxCell>
        <mxCell id="XnEvQe8ai3ZGjiJY6H-x-20" value="" style="edgeStyle=none;html=1;endArrow=block;endFill=0;endSize=12;verticalAlign=bottom;rounded=0;exitX=0.5;exitY=0.5;exitDx=0;exitDy=0;exitPerimeter=0;" parent="1" source="XnEvQe8ai3ZGjiJY6H-x-3" target="XnEvQe8ai3ZGjiJY6H-x-19" edge="1">
          <mxGeometry width="160" relative="1" as="geometry">
            <mxPoint x="50" y="250" as="sourcePoint" />
            <mxPoint x="370" y="265" as="targetPoint" />
          </mxGeometry>
        </mxCell>
        <mxCell id="XnEvQe8ai3ZGjiJY6H-x-21" value="" style="edgeStyle=none;html=1;endArrow=block;endFill=0;endSize=12;verticalAlign=bottom;rounded=0;entryX=0.948;entryY=0.624;entryDx=0;entryDy=0;entryPerimeter=0;exitX=0.5;exitY=0.5;exitDx=0;exitDy=0;exitPerimeter=0;" parent="1" source="XnEvQe8ai3ZGjiJY6H-x-15" target="XnEvQe8ai3ZGjiJY6H-x-19" edge="1">
          <mxGeometry width="160" relative="1" as="geometry">
            <mxPoint x="680" y="300" as="sourcePoint" />
            <mxPoint x="456" y="312" as="targetPoint" />
          </mxGeometry>
        </mxCell>
        <mxCell id="XnEvQe8ai3ZGjiJY6H-x-22" value="Logar" style="ellipse;whiteSpace=wrap;html=1;" parent="1" vertex="1">
          <mxGeometry x="318" y="380" width="96" height="70" as="geometry" />
        </mxCell>
        <mxCell id="XnEvQe8ai3ZGjiJY6H-x-25" value="&amp;lt;&amp;lt;include&amp;gt;&amp;gt;" style="edgeStyle=none;html=1;endArrow=open;verticalAlign=bottom;dashed=1;labelBackgroundColor=none;rounded=0;exitX=0.5;exitY=0.5;exitDx=0;exitDy=0;exitPerimeter=0;entryX=0;entryY=0.5;entryDx=0;entryDy=0;" parent="1" source="XnEvQe8ai3ZGjiJY6H-x-3" target="XnEvQe8ai3ZGjiJY6H-x-22" edge="1">
          <mxGeometry width="160" relative="1" as="geometry">
            <mxPoint x="100" y="400" as="sourcePoint" />
            <mxPoint x="260" y="400" as="targetPoint" />
          </mxGeometry>
        </mxCell>
        <mxCell id="XnEvQe8ai3ZGjiJY6H-x-26" value="&amp;lt;&amp;lt;include&amp;gt;&amp;gt;" style="edgeStyle=none;html=1;endArrow=open;verticalAlign=bottom;dashed=1;labelBackgroundColor=none;rounded=0;entryX=1;entryY=0.5;entryDx=0;entryDy=0;exitX=0.5;exitY=0.5;exitDx=0;exitDy=0;exitPerimeter=0;" parent="1" source="XnEvQe8ai3ZGjiJY6H-x-15" target="XnEvQe8ai3ZGjiJY6H-x-22" edge="1">
          <mxGeometry width="160" relative="1" as="geometry">
            <mxPoint x="620" y="330" as="sourcePoint" />
            <mxPoint x="390" y="500" as="targetPoint" />
          </mxGeometry>
        </mxCell>
      </root>
    </mxGraphModel>
  </diagram>
</mxfile>
